<svg width="1764" height="1877" viewBox="0 0 1764 1877" fill="none" xmlns="http://www.w3.org/2000/svg">
<g opacity="0.4" filter="url(#filter0_f_55_1144)">
<path fill-rule="evenodd" clip-rule="evenodd" d="M-51.4679 1306.83L-50.1618 1301.79L-48.6348 1296.67L-46.8892 1291.45L-44.9281 1286.16L-42.7551 1280.79L-40.3745 1275.35L-37.7909 1269.84L-35.0105 1264.27L-32.0395 1258.65L-28.8853 1252.98L-25.5561 1247.27L-22.0608 1241.52L-18.4086 1235.75L-14.6092 1229.95L-10.6731 1224.15L-6.61106 1218.33L-2.43428 1212.52L1.84445 1206.71L6.2125 1200.92L10.6558 1195.15L15.1603 1189.41L19.7107 1183.7L24.2918 1178.04L28.8875 1172.43L33.4817 1166.88L38.0577 1161.39L42.5983 1155.96L47.0865 1150.62L51.5051 1145.35L55.8362 1140.18L60.0624 1135.09L64.1662 1130.1L68.1308 1125.2L71.94 1120.41L75.5785 1115.73L79.032 1111.15L82.2874 1106.67L85.3326 1102.3L88.1563 1098.04L90.7486 1093.88L93.1013 1089.82L95.2075 1085.86L97.0617 1081.99L98.6606 1078.21L100.003 1074.52L101.088 1070.9L101.918 1067.35L102.497 1063.86L102.832 1060.43L102.929 1057.05L102.798 1053.7L102.45 1050.38L101.899 1047.08L101.159 1043.79L100.246 1040.49L99.1781 1037.19L97.9737 1033.86L96.6531 1030.51L95.2374 1027.12L93.7488 1023.68L92.21 1020.18L90.6447 1016.62L89.0768 1012.98L87.5307 1009.27L86.0308 1005.48L84.6015 1001.59L83.2673 997.61L82.0522 993.531L80.9799 989.35L80.0732 985.066L79.3546 980.677L78.8453 976.184L78.5659 971.586L78.5356 966.885L78.7726 962.084L79.2936 957.186L80.1138 952.196L81.2471 947.117L82.7058 941.957L84.5005 936.721L86.6399 931.417L89.1313 926.053L91.9802 920.638L95.1901 915.18L98.7626 909.69L102.698 904.176L106.995 898.651L111.648 893.123L116.655 887.604L122.006 882.106L127.694 876.637L133.709 871.211L140.038 865.836L146.669 860.523L153.586 855.283L160.774 850.126L168.216 845.059L175.892 840.092L183.784 835.233L191.871 830.487L200.131 825.863L208.543 821.364L217.085 816.995L225.734 812.759L234.469 808.658L243.266 804.694L252.102 800.865L260.953 797.171L269.797 793.606L278.609 790.167L287.369 786.847L296.055 783.637L304.647 780.53L313.126 777.515L321.476 774.579L329.683 771.712L337.734 768.899L345.618 766.126L353.327 763.38L360.856 760.646L368.2 757.909L375.36 755.154L382.334 752.367L389.124 749.53L395.734 746.63L402.169 743.651L408.436 740.577L414.543 737.394L420.499 734.086L426.316 730.641L432.006 727.045L437.583 723.286L443.061 719.353L448.456 715.234L453.782 710.92L459.058 706.402L464.3 701.674L469.526 696.729L474.752 691.562L479.998 686.17L485.28 680.551L490.615 674.704L496.021 668.631L501.514 662.334L507.11 655.816L512.824 649.085L518.67 642.146L524.661 635.01L530.809 627.686L537.125 620.186L543.618 612.523L550.297 604.713L557.169 596.773L564.237 588.718L571.505 580.569L578.976 572.346L586.649 564.068L594.523 555.759L602.594 547.441L610.857 539.138L619.305 530.873L627.93 522.672L636.721 514.558L645.668 506.557L654.757 498.693L663.973 490.992L673.301 483.478L682.724 476.173L692.223 469.103L701.781 462.288L711.377 455.751L720.99 449.512L730.6 443.589L740.186 438.001L749.727 432.764L759.201 427.892L768.588 423.398L777.866 419.293L787.015 415.586L796.017 412.285L804.852 409.394L813.502 406.916L821.952 404.853L830.185 403.204L838.189 401.965L845.95 401.131L853.458 400.697L860.704 400.652L867.679 400.988L874.377 401.692L880.795 402.75L886.93 404.148L892.78 405.868L898.349 407.893L903.638 410.203L908.655 412.775L913.407 415.586L917.906 418.609L922.165 421.816L926.201 425.18L930.031 428.67L933.675 432.256L937.154 435.907L940.49 439.595L943.709 443.288L946.834 446.957L949.891 450.576L952.904 454.117L955.899 457.557L958.9 460.871L961.93 464.041L965.015 467.046L968.178 469.867L971.443 472.487L974.831 474.892L978.367 477.066L982.07 478.997L985.961 480.675L990.061 482.091L994.385 483.238L998.951 484.111L1003.77 484.706L1008.86 485.023L1014.23 485.063L1019.89 484.829L1025.85 484.326L1032.1 483.56L1038.65 482.541L1045.51 481.28L1052.66 479.788L1060.11 478.079L1067.85 476.169L1075.86 474.075L1084.14 471.814L1092.68 469.407L1101.45 466.873L1110.44 464.234L1119.64 461.511L1129.01 458.728L1138.54 455.907L1148.21 453.072L1157.98 450.245L1167.83 447.452L1177.74 444.715L1187.66 442.058L1197.59 439.504L1207.47 437.075L1217.3 434.793L1227.02 432.679L1236.61 430.754L1246.05 429.037L1255.3 427.546L1264.33 426.298L1273.11 425.31L1281.61 424.596L1289.81 424.169L1297.68 424.042L1305.19 424.224L1312.32 424.725L1319.04 425.551L1325.35 426.709L1331.21 428.202L1336.61 430.034L1341.54 432.205L1345.98 434.714L1349.93 437.559L1353.37 440.736L1356.3 444.24L1358.71 448.064L1360.6 452.201L1361.98 456.64L1362.84 461.371L1363.2 466.383L1363.06 471.662L1362.42 477.195L1361.3 482.967L1359.72 488.963L1357.69 495.166L1355.23 501.561L1352.35 508.131L1349.07 514.859L1345.42 521.727L1341.43 528.718L1337.1 535.816L1332.47 543.002L1327.57 550.258L1322.43 557.568L1317.06 564.913L1311.51 572.277L1305.8 579.643L1299.97 586.996L1294.04 594.32L1288.04 601.602L1282.01 608.828L1275.96 615.988L1269.93 623.07L1263.95 630.065L1258.02 636.966L1252.18 643.765L1246.45 650.458L1240.84 657.04L1235.37 663.508L1230.06 669.86L1224.91 676.093L1219.95 682.209L1215.18 688.207L1210.61 694.089L1206.25 699.858L1202.1 705.517L1198.16 711.07L1194.44 716.522L1190.93 721.878L1187.65 727.144L1184.57 732.327L1181.7 737.432L1179.04 742.467L1176.57 747.439L1174.29 752.356L1172.19 757.225L1170.27 762.053L1168.5 766.85L1166.88 771.621L1165.4 776.376L1164.05 781.122L1162.8 785.865L1161.65 790.615L1160.58 795.377L1159.58 800.158L1158.64 804.965L1157.73 809.803L1156.84 814.68L1155.96 819.599L1155.07 824.566L1154.16 829.586L1153.21 834.662L1152.2 839.798L1151.13 844.996L1149.98 850.26L1148.73 855.591L1147.38 860.992L1145.91 866.461L1144.31 872.002L1142.58 877.612L1140.69 883.293L1138.65 889.043L1136.44 894.861L1134.06 900.745L1131.5 906.694L1128.76 912.705L1125.83 918.775L1122.71 924.902L1119.4 931.083L1115.89 937.314L1112.19 943.592L1108.3 949.913L1104.22 956.275L1099.94 962.674L1095.47 969.105L1090.82 975.566L1085.99 982.053L1080.98 988.563L1075.8 995.093L1070.45 1001.64L1064.93 1008.2L1059.26 1014.77L1053.43 1021.35L1047.46 1027.93L1041.34 1034.51L1035.08 1041.1L1028.69 1047.69L1022.16 1054.27L1015.52 1060.84L1008.75 1067.41L1001.87 1073.97L994.874 1080.52L987.778 1087.05L980.583 1093.58L973.296 1100.09L965.923 1106.59L958.471 1113.09L950.943 1119.57L943.347 1126.05L935.685 1132.52L927.962 1138.98L920.182 1145.45L912.348 1151.91L904.46 1158.37L896.522 1164.84L888.533 1171.31L880.495 1177.78L872.406 1184.26L864.268 1190.75L856.08 1197.25L847.839 1203.76L839.545 1210.27L831.197 1216.8L822.793 1223.33L814.331 1229.88L805.81 1236.43L797.227 1242.98L788.58 1249.54L779.868 1256.11L771.089 1262.67L762.24 1269.23L753.321 1275.78L744.33 1282.32L735.266 1288.84L726.128 1295.34L716.916 1301.82L707.629 1308.26L698.269 1314.67L688.836 1321.03L679.332 1327.34L669.758 1333.59L660.116 1339.78L650.41 1345.89L640.643 1351.92L630.819 1357.86L620.942 1363.71L611.017 1369.46L601.048 1375.09L591.043 1380.61L581.006 1386L570.943 1391.27L560.862 1396.39L550.769 1401.38L540.672 1406.21L530.576 1410.9L520.49 1415.43L510.42 1419.79L500.374 1424L490.359 1428.03L480.381 1431.9L470.448 1435.6L460.566 1439.12L450.742 1442.48L440.981 1445.66L431.289 1448.66L421.673 1451.5L412.136 1454.17L402.683 1456.67L393.32 1459L384.049 1461.18L374.876 1463.19L365.802 1465.04L356.83 1466.74L347.965 1468.29L339.207 1469.7L330.559 1470.95L322.022 1472.07L313.599 1473.06L305.29 1473.9L297.096 1474.62L289.019 1475.22L281.058 1475.69L273.215 1476.04L265.49 1476.27L257.882 1476.39L250.391 1476.41L243.018 1476.32L235.762 1476.12L228.622 1475.83L221.599 1475.44L214.692 1474.95L207.9 1474.37L201.225 1473.7L194.665 1472.95L188.22 1472.1L181.889 1471.17L175.673 1470.16L169.57 1469.07L163.579 1467.9L157.699 1466.66L151.928 1465.35L146.263 1463.96L140.702 1462.52L135.241 1461.01L129.876 1459.45L124.601 1457.85L119.411 1456.2L114.302 1454.52L109.269 1452.8L104.306 1451.06L99.4097 1449.29L94.5738 1447.51L89.7942 1445.71L85.0662 1443.91L80.3854 1442.09L75.7479 1440.27L71.1498 1438.45L66.5882 1436.63L62.06 1434.81L57.5637 1432.99L53.0972 1431.17L48.6603 1429.35L44.2526 1427.52L39.8745 1425.7L35.5274 1423.86L31.2131 1422.02L26.9345 1420.16L22.6945 1418.29L18.4972 1416.4L14.3472 1414.48L10.2495 1412.53L6.20985 1410.55L2.2343 1408.52L-1.67036 1406.45L-5.49722 1404.32L-9.23896 1402.14L-12.888 1399.89L-16.4363 1397.57L-19.8761 1395.18L-23.1989 1392.71L-26.397 1390.15L-29.462 1387.51L-32.386 1384.77L-35.1607 1381.93L-37.7788 1378.99L-40.2326 1375.94L-42.5149 1372.79L-44.6188 1369.52L-46.5379 1366.15L-48.2661 1362.65L-49.7974 1359.04L-51.1271 1355.32L-52.2503 1351.48L-53.1626 1347.52L-53.8608 1343.44L-54.3413 1339.25L-54.6018 1334.94L-54.6402 1330.52L-54.4551 1325.99L-54.0453 1321.36L-53.4106 1316.62L-52.5513 1311.77L-51.4679 1306.83Z" fill="url(#paint0_radial_55_1144)"/>
</g>
<defs>
<filter id="filter0_f_55_1144" x="-454.64" y="0.652344" width="2217.84" height="1875.76" filterUnits="userSpaceOnUse" color-interpolation-filters="sRGB">
<feFlood flood-opacity="0" result="BackgroundImageFix"/>
<feBlend mode="normal" in="SourceGraphic" in2="BackgroundImageFix" result="shape"/>
<feGaussianBlur stdDeviation="200" result="effect1_foregroundBlur_55_1144"/>
</filter>
<radialGradient id="paint0_radial_55_1144" cx="0" cy="0" r="1" gradientUnits="userSpaceOnUse" gradientTransform="translate(659.927 913.499) rotate(-31.4974) scale(838.996 363.751)">
<stop stop-color="#FF4F86"/>
<stop offset="0.8" stop-color="#FF8059"/>
</radialGradient>
</defs>
</svg>
